<svg width="128" height="35" viewBox="0 0 128 35" fill="none" xmlns="http://www.w3.org/2000/svg">
<path d="M54.0785 9.20908L46.8115 6.32158L39.5505 3.43408L32.2908 6.32158L25.0225 9.20908V12.5647H54.0785V9.20908ZM32.4915 14.7813C32.5899 14.7914 32.6892 14.7806 32.7832 14.7498C32.8771 14.7189 32.9637 14.6686 33.037 14.6022C33.1105 14.5357 33.1691 14.4546 33.2092 14.364C33.2494 14.2734 33.27 14.1754 33.27 14.0763C33.27 13.9771 33.2494 13.8791 33.2092 13.7885C33.1691 13.6979 33.1105 13.6168 33.037 13.5503C32.9637 13.4839 32.8771 13.4336 32.7832 13.4027C32.6892 13.3719 32.5899 13.3611 32.4915 13.3712H27.8835C27.7852 13.3611 27.6859 13.3719 27.5919 13.4027C27.4979 13.4336 27.4114 13.4839 27.3381 13.5503C27.2646 13.6168 27.206 13.6979 27.1659 13.7885C27.1257 13.8791 27.1051 13.9771 27.1051 14.0763C27.1051 14.1754 27.1257 14.2734 27.1659 14.364C27.206 14.4546 27.2646 14.5357 27.3381 14.6022C27.4114 14.6686 27.4979 14.7189 27.5919 14.7498C27.6859 14.7806 27.7852 14.7914 27.8835 14.7813H28.1439V24.8511H27.8835C27.7852 24.8412 27.6859 24.8518 27.5919 24.8828C27.4979 24.9137 27.4114 24.9638 27.3381 25.0303C27.2646 25.0968 27.206 25.1779 27.1659 25.2685C27.1257 25.359 27.1051 25.4572 27.1051 25.5562C27.1051 25.6554 27.1257 25.7534 27.1659 25.8439C27.206 25.9347 27.2646 26.0157 27.3381 26.0822C27.4114 26.1486 27.4979 26.1989 27.5919 26.2298C27.6859 26.2606 27.7852 26.2714 27.8835 26.2613H32.4915C32.5899 26.2714 32.6892 26.2606 32.7832 26.2298C32.8771 26.1989 32.9637 26.1486 33.037 26.0822C33.1105 26.0157 33.1691 25.9347 33.2092 25.8439C33.2494 25.7534 33.27 25.6554 33.27 25.5562C33.27 25.4572 33.2494 25.359 33.2092 25.2685C33.1691 25.1779 33.1105 25.0968 33.037 25.0303C32.9637 24.9638 32.8771 24.9137 32.7832 24.8828C32.6892 24.8518 32.5899 24.8412 32.4915 24.8511H32.2312V14.7813H32.4915ZM41.8545 14.7813C41.9528 14.7914 42.0521 14.7806 42.1461 14.7498C42.2401 14.7189 42.3266 14.6686 42.3999 14.6022C42.4734 14.5357 42.532 14.4546 42.5721 14.364C42.6123 14.2734 42.6329 14.1754 42.6329 14.0763C42.6329 13.9771 42.6123 13.8791 42.5721 13.7885C42.532 13.6979 42.4734 13.6168 42.3999 13.5503C42.3266 13.4839 42.2401 13.4336 42.1461 13.4027C42.0521 13.3719 41.9528 13.3611 41.8545 13.3712H37.2465C37.1481 13.3611 37.0488 13.3719 36.9548 13.4027C36.8609 13.4336 36.7743 13.4839 36.701 13.5503C36.6275 13.6168 36.5689 13.6979 36.5288 13.7885C36.4886 13.8791 36.468 13.9771 36.468 14.0763C36.468 14.1754 36.4886 14.2734 36.5288 14.364C36.5689 14.4546 36.6275 14.5357 36.701 14.6022C36.7743 14.6686 36.8609 14.7189 36.9548 14.7498C37.0488 14.7806 37.1481 14.7914 37.2465 14.7813H37.5083V24.8511H37.2465C37.1481 24.8412 37.0488 24.8518 36.9548 24.8828C36.8609 24.9137 36.7743 24.9638 36.701 25.0303C36.6275 25.0968 36.5689 25.1779 36.5288 25.2685C36.4886 25.359 36.468 25.4572 36.468 25.5562C36.468 25.6554 36.4886 25.7534 36.5288 25.8439C36.5689 25.9347 36.6275 26.0157 36.701 26.0822C36.7743 26.1486 36.8609 26.1989 36.9548 26.2298C37.0488 26.2606 37.1481 26.2714 37.2465 26.2613H41.8545C41.9528 26.2714 42.0521 26.2606 42.1461 26.2298C42.2401 26.1989 42.3266 26.1486 42.3999 26.0822C42.4734 26.0157 42.532 25.9347 42.5721 25.8439C42.6123 25.7534 42.6329 25.6554 42.6329 25.5562C42.6329 25.4572 42.6123 25.359 42.5721 25.2685C42.532 25.1779 42.4734 25.0968 42.3999 25.0303C42.3266 24.9638 42.2401 24.9137 42.1461 24.8828C42.0521 24.8518 41.9528 24.8412 41.8545 24.8511H41.5941V14.7813H41.8545ZM51.3672 14.7813C51.4655 14.7914 51.5649 14.7806 51.6588 14.7498C51.7528 14.7189 51.8393 14.6686 51.9126 14.6022C51.9861 14.5357 52.0447 14.4546 52.0849 14.364C52.125 14.2734 52.1457 14.1754 52.1457 14.0763C52.1457 13.9771 52.125 13.8791 52.0849 13.7885C52.0447 13.6979 51.9861 13.6168 51.9126 13.5503C51.8393 13.4839 51.7528 13.4336 51.6588 13.4027C51.5649 13.3719 51.4655 13.3611 51.3672 13.3712H46.7592C46.6609 13.3611 46.5615 13.3719 46.4676 13.4027C46.3736 13.4336 46.287 13.4839 46.2137 13.5503C46.1403 13.6168 46.0817 13.6979 46.0415 13.7885C46.0014 13.8791 45.9807 13.9771 45.9807 14.0763C45.9807 14.1754 46.0014 14.2734 46.0415 14.364C46.0817 14.4546 46.1403 14.5357 46.2137 14.6022C46.287 14.6686 46.3736 14.7189 46.4676 14.7498C46.5615 14.7806 46.6609 14.7914 46.7592 14.7813H47.0195V24.8511H46.7592C46.6609 24.8412 46.5615 24.8518 46.4676 24.8828C46.3736 24.9137 46.287 24.9638 46.2137 25.0303C46.1403 25.0968 46.0817 25.1779 46.0415 25.2685C46.0014 25.359 45.9807 25.4572 45.9807 25.5562C45.9807 25.6554 46.0014 25.7534 46.0415 25.8439C46.0817 25.9347 46.1403 26.0157 46.2137 26.0822C46.287 26.1486 46.3736 26.1989 46.4676 26.2298C46.5615 26.2606 46.6609 26.2714 46.7592 26.2613H51.3672C51.4655 26.2714 51.5649 26.2606 51.6588 26.2298C51.7528 26.1989 51.8393 26.1486 51.9126 26.0822C51.9861 26.0157 52.0447 25.9347 52.0849 25.8439C52.125 25.7534 52.1457 25.6554 52.1457 25.5562C52.1457 25.4572 52.125 25.359 52.0849 25.2685C52.0447 25.1779 51.9861 25.0968 51.9126 25.0303C51.8393 24.9638 51.7528 24.9137 51.6588 24.8828C51.5649 24.8518 51.4655 24.8412 51.3672 24.8511H51.1054V14.7813H51.3672ZM25.7657 28.8134H53.3352C53.5222 28.8221 53.7051 28.7567 53.8443 28.6311C53.9835 28.5055 54.0676 28.33 54.0785 28.1426V27.7386C54.0676 27.5515 53.9836 27.3762 53.8447 27.2506C53.7059 27.1251 53.5234 27.0595 53.3366 27.0678H25.7643C25.5775 27.0595 25.395 27.1251 25.2562 27.2506C25.1173 27.3762 25.0334 27.5515 25.0225 27.7386V28.1426C25.0334 28.3298 25.1173 28.5051 25.2562 28.6305C25.395 28.7561 25.5775 28.8219 25.7643 28.8134H25.7657ZM55.2683 29.6184H23.8341C23.6472 29.6101 23.4645 29.6757 23.3254 29.8013C23.1864 29.9267 23.102 30.102 23.0908 30.2892V30.8944C23.102 31.0815 23.1861 31.2565 23.3249 31.382C23.4636 31.5075 23.646 31.5733 23.8326 31.5653H55.2683C55.455 31.5737 55.6376 31.508 55.7763 31.3824C55.9153 31.257 55.9992 31.0815 56.0101 30.8944V30.2892C55.9992 30.1021 55.9153 29.9268 55.7763 29.8013C55.6376 29.6757 55.455 29.6101 55.2683 29.6184ZM68.2734 13.5126C67.9637 13.1639 67.5526 12.9216 67.0981 12.8199C67.4526 12.6788 67.7595 12.4389 67.9825 12.1287C68.1697 11.8588 68.271 11.5386 68.2734 11.2099C68.2721 10.8498 68.1574 10.4992 67.9461 10.208C67.7193 9.88406 67.4005 9.63607 67.0312 9.49637C66.5345 9.32636 66.011 9.24925 65.4865 9.26887H62.3345V16.8624H65.5374C65.9916 16.871 66.4454 16.8279 66.8901 16.734C67.2178 16.6671 67.5305 16.5401 67.8123 16.3592C68.0742 16.1803 68.2865 15.9373 68.429 15.6534C68.5976 15.3499 68.6849 15.0078 68.6821 14.6603C68.6916 14.2403 68.5459 13.8316 68.2734 13.5126ZM63.4428 10.1687H65.1301C65.5586 10.1505 65.9875 10.1863 66.4072 10.2751C66.6386 10.3359 66.8415 10.4763 66.9803 10.6718C67.1161 10.8663 67.1865 11.0993 67.181 11.3368C67.1889 11.5771 67.1122 11.8125 66.9643 12.0018C66.797 12.1921 66.5731 12.3234 66.3257 12.3766C65.9765 12.4482 65.6201 12.4776 65.2639 12.4641H63.4428V10.1687ZM67.3585 15.3049C67.2582 15.4818 67.1119 15.6279 66.9352 15.7278C66.7365 15.836 66.5195 15.9063 66.2952 15.9349C66.044 15.9614 65.7913 15.9726 65.5388 15.9684H63.4428V13.358H65.389C65.8017 13.3428 66.2143 13.3855 66.6152 13.4849C66.8787 13.5595 67.1125 13.7144 67.2843 13.9282C67.4254 14.1271 67.5073 14.3621 67.5203 14.6057C67.5334 14.8496 67.4773 15.0919 67.3585 15.3049ZM75.0646 16.1901C75.004 15.6445 74.9817 15.0953 74.9977 14.5466V13.3041C75.0079 13.0163 74.9903 12.7281 74.9454 12.4437C74.8981 12.2062 74.7874 11.986 74.6254 11.8064C74.4278 11.6082 74.1822 11.4649 73.9126 11.3907C73.5041 11.2649 73.0774 11.2077 72.6501 11.2216C72.1822 11.2142 71.716 11.2802 71.2683 11.417C70.9188 11.5165 70.6027 11.709 70.3534 11.9741C70.127 12.248 69.9711 12.5735 69.8995 12.922L70.9105 13.0489C70.9778 12.7227 71.1601 12.4317 71.4239 12.2293C71.7542 12.0535 72.1273 11.9747 72.5003 12.0018C72.9161 11.9719 73.3301 12.0828 73.6755 12.3168C73.7812 12.4205 73.862 12.5467 73.9121 12.6861C73.9622 12.8255 73.9803 12.9744 73.965 13.1218C73.965 13.1553 73.965 13.237 73.9577 13.3639C73.355 13.5297 72.7379 13.6376 72.1148 13.6862C71.8081 13.7173 71.5032 13.7645 71.2014 13.8276C70.9404 13.8952 70.6901 13.9992 70.4581 14.1368C70.2383 14.2688 70.0545 14.4531 69.9228 14.6734C69.7461 14.9747 69.6833 15.3296 69.7461 15.6735C69.8088 16.0173 69.9929 16.327 70.2646 16.5459C70.7132 16.8679 71.2588 17.0244 71.8094 16.9892C72.1958 16.9919 72.5801 16.9308 72.9468 16.8084C73.3478 16.6636 73.7219 16.4526 74.0537 16.1842C74.0748 16.4164 74.1406 16.6421 74.2472 16.8492H75.325C75.1999 16.6468 75.1118 16.4235 75.0646 16.1901ZM73.965 14.4445C73.9839 14.7641 73.9281 15.0836 73.8021 15.3778C73.6485 15.6601 73.4089 15.886 73.1185 16.0224C72.7874 16.1818 72.4239 16.2621 72.0566 16.2571C71.732 16.2814 71.4088 16.1939 71.1403 16.0092C71.0433 15.937 70.9644 15.8428 70.9103 15.7345C70.8563 15.626 70.8284 15.5064 70.829 15.3851C70.827 15.226 70.8766 15.0704 70.9701 14.9417C71.0729 14.8022 71.2153 14.697 71.3788 14.6399C71.67 14.542 71.9718 14.4789 72.2777 14.4518C72.8513 14.3975 73.4171 14.2801 73.965 14.1018V14.4445ZM80.4072 12.6653C80.5014 12.9393 80.5419 13.229 80.5265 13.5185V16.8624H81.5592V13.4849C81.5679 13.1819 81.5484 12.8787 81.501 12.5793C81.4536 12.3118 81.3345 12.0623 81.1564 11.8575C80.9782 11.6527 80.748 11.5005 80.4901 11.417C80.1675 11.2935 79.8245 11.2321 79.4792 11.2362C79.1064 11.215 78.7342 11.2867 78.3955 11.4447C78.0571 11.6027 77.7627 11.8421 77.5388 12.1418V11.363H76.6108V16.8609H77.6508V13.8626C77.6184 13.6028 77.6441 13.339 77.7265 13.0904C77.8088 12.8419 77.9454 12.6149 78.1265 12.4262C78.4518 12.1745 78.8531 12.0418 79.2639 12.0499C79.5142 12.0434 79.7621 12.1012 79.9839 12.2176C80.1714 12.3158 80.3208 12.4739 80.4086 12.6668L80.4072 12.6653ZM88.189 16.8624L85.6319 13.4047L87.9577 11.363H86.621L84.1759 13.6001V9.26887H83.1432V16.8624H84.1759V14.6807L84.9032 14.0493L86.9177 16.8624H88.189ZM61.7483 22.2596H64.5192V28.9607H65.6275V22.2596H68.4072V21.3671H61.7483V22.2596ZM70.5541 23.5226C70.2831 23.7302 70.06 23.9939 69.8995 24.2955V23.4628H68.9715V28.9607H69.997V26.0805C69.9938 25.7109 70.0513 25.3434 70.1672 24.9926C70.2395 24.7859 70.3747 24.6073 70.5541 24.4821C70.7343 24.3614 70.9468 24.2984 71.1635 24.3013C71.4289 24.3047 71.6892 24.3738 71.9214 24.5026L72.2777 23.6363C71.9556 23.446 71.5899 23.342 71.2159 23.3344C70.9819 23.3318 70.7519 23.3971 70.5541 23.5226ZM77.8734 28.2899C77.8127 27.7439 77.7903 27.1941 77.8065 26.6449V25.4024C77.8171 25.1146 77.8001 24.8265 77.7556 24.5419C77.7081 24.3045 77.5974 24.0843 77.4355 23.9046C77.2379 23.7066 76.9922 23.5634 76.7228 23.489C76.3137 23.3635 75.8865 23.3067 75.4588 23.3213C74.9909 23.3136 74.5247 23.3791 74.077 23.5153C73.7275 23.615 73.4114 23.8074 73.1621 24.0724C72.9361 24.3465 72.7807 24.672 72.7097 25.0203L73.7192 25.1472C73.7867 24.8211 73.9689 24.5301 74.2326 24.3276C74.563 24.152 74.9361 24.0731 75.309 24.1001C75.7249 24.0702 76.1388 24.1811 76.4843 24.4151C76.5903 24.5189 76.6716 24.6452 76.7219 24.7849C76.7723 24.9246 76.7905 25.0738 76.7752 25.2215C76.7752 25.2551 76.7752 25.3353 76.7665 25.4621C76.1637 25.6278 75.5467 25.7357 74.9235 25.7844C74.6168 25.8155 74.3119 25.8628 74.0101 25.9259C73.7491 25.9936 73.4988 26.0975 73.2668 26.2351C73.0472 26.3672 72.8633 26.5515 72.7315 26.7717C72.5548 27.073 72.492 27.428 72.5548 27.7719C72.6175 28.1156 72.8017 28.4253 73.0734 28.6442C73.5222 28.9665 74.0686 29.1231 74.6195 29.0876C75.0056 29.09 75.3893 29.0289 75.7556 28.9067C76.1572 28.7621 76.5317 28.5512 76.8639 28.2826C76.8936 28.5128 76.9583 28.7371 77.0559 28.9476H78.1337C78.0088 28.7456 77.9206 28.5229 77.8734 28.2899ZM76.7825 26.5369C76.8011 26.8568 76.7448 27.1764 76.6181 27.4703C76.4646 27.7528 76.2251 27.9786 75.9345 28.1149C75.6034 28.2745 75.2399 28.3549 74.8726 28.3496C74.5484 28.3736 74.2258 28.2862 73.9577 28.1017C73.8603 28.0297 73.7812 27.9356 73.7269 27.8273C73.6725 27.7188 73.6444 27.599 73.645 27.4776C73.643 27.3185 73.6926 27.1629 73.7861 27.0342C73.8888 26.8947 74.0313 26.7894 74.1948 26.7324C74.4865 26.6338 74.7887 26.57 75.0952 26.5428C75.6686 26.4885 76.2344 26.3716 76.7825 26.1942V26.5369ZM83.997 23.9849C83.8114 23.7708 83.5731 23.6089 83.3061 23.5153C82.9835 23.3918 82.6405 23.3305 82.2952 23.3344C81.9224 23.3136 81.5503 23.3855 81.2121 23.5439C80.8738 23.7021 80.5798 23.9418 80.3563 24.2415V23.4628H79.4268V28.968H80.4668V25.9667C80.4342 25.707 80.46 25.443 80.5423 25.1945C80.6246 24.946 80.7614 24.719 80.9425 24.5303C81.2678 24.2787 81.6692 24.1459 82.0799 24.154C82.3307 24.1475 82.5791 24.2052 82.8014 24.3217C82.9877 24.4205 83.1361 24.5785 83.2232 24.7709C83.3179 25.0449 83.3589 25.3345 83.3439 25.624V28.968H84.3766V25.5846C84.3849 25.2812 84.3649 24.9774 84.317 24.6776C84.2658 24.4248 84.1561 24.1876 83.997 23.9849ZM89.6668 26.0542C89.1647 25.8838 88.654 25.7401 88.1366 25.624C87.83 25.5542 87.5254 25.4759 87.2232 25.3892C87.0726 25.3423 86.9368 25.2568 86.829 25.1413C86.749 25.0502 86.7042 24.9332 86.7025 24.8117C86.7083 24.7102 86.7393 24.6116 86.7926 24.5252C86.8459 24.4385 86.9199 24.3666 87.0079 24.3159C87.3199 24.1483 87.6731 24.0734 88.0261 24.1001C88.3522 24.0783 88.6769 24.1599 88.9541 24.3334C89.0632 24.4108 89.1551 24.51 89.2241 24.6248C89.2931 24.7394 89.338 24.8671 89.3555 24.9999L90.3665 24.8715C90.3186 24.5621 90.1957 24.2692 90.0086 24.0184C89.7906 23.7826 89.5141 23.609 89.2072 23.5153C88.8019 23.3815 88.3769 23.318 87.9505 23.3271C87.6495 23.3263 87.3497 23.3651 87.0588 23.4424C86.8284 23.502 86.6079 23.5949 86.4043 23.718C86.1985 23.8517 86.0258 24.0308 85.8995 24.2415C85.7747 24.4454 85.7102 24.6805 85.7134 24.9196C85.7118 25.1827 85.7899 25.44 85.9374 25.6576C86.1027 25.8924 86.332 26.0746 86.5977 26.1826C87.1105 26.3726 87.6371 26.5222 88.173 26.6303C88.5358 26.6958 88.89 26.8019 89.229 26.9467C89.3202 26.9937 89.3969 27.0646 89.4507 27.1519C89.5045 27.2394 89.5336 27.3399 89.5345 27.4426C89.5315 27.5651 89.4987 27.6849 89.4389 27.7917C89.379 27.8984 89.294 27.9889 89.1912 28.0551C88.8766 28.2531 88.5071 28.345 88.1366 28.3176C87.7478 28.3406 87.3621 28.2368 87.037 28.0215C86.7724 27.8112 86.6015 27.5045 86.5614 27.1684L85.5432 27.3157C85.6235 27.8446 85.9057 28.3215 86.3301 28.6457C86.8725 28.9763 87.5033 29.131 88.1366 29.089C88.5758 29.0937 89.0118 29.016 89.4225 28.8601C89.7673 28.7364 90.0689 28.515 90.2908 28.2228C90.4795 27.9681 90.5838 27.6606 90.589 27.3434C90.5995 27.0568 90.5128 26.7752 90.3432 26.5442C90.1676 26.321 89.9334 26.1512 89.6668 26.0542ZM93.309 22.2596C93.4994 22.1198 93.7346 22.0555 93.9694 22.0788C94.174 22.081 94.3784 22.0991 94.5803 22.1328L94.7359 21.3205C94.4166 21.2621 94.0932 21.2304 93.7686 21.2257C93.4033 21.2082 93.0396 21.2872 92.7141 21.4546C92.4777 21.5877 92.2921 21.7953 92.1861 22.0453C92.0994 22.3114 92.0619 22.5911 92.0755 22.8707V23.454H91.1606V24.1803H92.0683V28.9534H93.1155V24.1803H94.3039V23.4482H93.1155V22.9378C93.0891 22.6951 93.1586 22.4517 93.309 22.2596ZM100.339 26.1942C100.362 25.8076 100.305 25.4203 100.172 25.0566C100.039 24.6927 99.8329 24.3602 99.5665 24.0796C99.3019 23.8263 98.989 23.6292 98.6466 23.4998C98.3042 23.3705 97.9393 23.3118 97.5737 23.3271C97.1881 23.3022 96.8015 23.3613 96.4408 23.5004C96.0801 23.6394 95.7537 23.8551 95.484 24.1327C95.2145 24.4103 95.0079 24.743 94.8788 25.1082C94.7496 25.4735 94.7009 25.8623 94.7359 26.2482C94.7126 26.6317 94.7701 27.0157 94.9044 27.3755C95.0388 27.7353 95.2469 28.0626 95.5155 28.3365C96.0959 28.8551 96.8572 29.1224 97.6334 29.0803C98.2485 29.107 98.8571 28.9458 99.3788 28.618C99.8353 28.3062 100.167 27.843 100.317 27.3099L99.2537 27.1888C99.1313 27.5393 98.8991 27.8405 98.5919 28.0478C98.3048 28.2339 97.9678 28.3275 97.6261 28.3161C97.1554 28.3298 96.6984 28.1563 96.3548 27.8334C95.9961 27.4598 95.7941 26.9623 95.7905 26.4436H100.332C100.339 26.3357 100.339 26.2467 100.339 26.1942ZM95.8646 25.678C95.8741 25.4608 95.9263 25.2476 96.0182 25.0508C96.11 24.8537 96.2398 24.677 96.3999 24.5303C96.7302 24.2402 97.158 24.0865 97.597 24.1001C97.8358 24.0926 98.0734 24.1368 98.2937 24.2293C98.5141 24.3219 98.7119 24.4609 98.8741 24.6367C99.1113 24.9332 99.2469 25.2982 99.261 25.678H95.8646ZM103.185 23.5226C102.915 23.7302 102.691 23.9939 102.531 24.2955V23.4628H101.601V28.9607H102.627V26.0805C102.624 25.7109 102.682 25.3433 102.798 24.9926C102.871 24.7859 103.006 24.6074 103.185 24.4821C103.366 24.3615 103.578 24.2985 103.795 24.3013C104.06 24.305 104.319 24.3741 104.551 24.5026L104.909 23.6363C104.587 23.446 104.221 23.342 103.847 23.3344C103.613 23.332 103.383 23.3973 103.185 23.5226Z" fill="white"/>
</svg>
