<svg width="110" height="35" viewBox="0 0 110 35" fill="none" xmlns="http://www.w3.org/2000/svg">
<path d="M48.4646 20.9489V16.8168C48.4646 15.2467 47.4784 14.1999 45.8892 14.1999C45.04 14.1999 44.1907 14.4478 43.5879 15.3844C43.1221 14.6406 42.4099 14.1999 41.4235 14.1999C40.7112 14.1999 40.0262 14.4203 39.5058 15.1915V14.3652H38.0811V20.9489H39.5331V17.2851C39.5331 16.1281 40.1633 15.5222 41.1495 15.5222C42.1084 15.5222 42.5742 16.1557 42.5742 17.2576V20.9213H44.0263V17.2576C44.0263 16.1007 44.6838 15.4946 45.6427 15.4946C46.629 15.4946 47.0948 16.1281 47.0948 17.2301V20.8937H48.4646V20.9489ZM69.7797 14.3652H67.4509V12.3543H66.0262V14.3652H64.6838V15.6874H66.0262V18.69C66.0262 20.2326 66.629 21.1417 68.3003 21.1417C68.9303 21.1417 69.6427 20.9489 70.081 20.6183L69.6701 19.3786C69.2318 19.6266 68.766 19.7643 68.4099 19.7643C67.6975 19.7643 67.4509 19.3236 67.4509 18.6624V15.6874H69.7797V14.3652ZM81.9715 14.1999C81.1495 14.1999 80.6016 14.5856 80.2454 15.1641V14.3652H78.8207V20.9489H80.2454V17.2576C80.2454 16.1557 80.7112 15.5496 81.6427 15.5496C81.944 15.5496 82.2455 15.6048 82.5468 15.715L82.9851 14.3652C82.6564 14.2551 82.2455 14.1999 81.9715 14.1999ZM63.5605 14.8886C62.8756 14.4203 61.9167 14.1999 60.8756 14.1999C59.2044 14.1999 58.1359 14.9987 58.1359 16.321C58.1359 17.3953 58.9304 18.0565 60.4098 18.2768L61.0947 18.387C61.8892 18.4972 62.2454 18.7176 62.2454 19.0757C62.2454 19.599 61.7249 19.8745 60.7385 19.8745C59.7523 19.8745 59.04 19.544 58.5468 19.1859L57.8618 20.3152C58.6563 20.8937 59.6427 21.1692 60.7113 21.1692C62.6016 21.1692 63.6975 20.2602 63.6975 19.0205C63.6975 17.8636 62.8208 17.2576 61.3962 17.0371L60.7113 16.927C60.0811 16.8444 59.5879 16.7066 59.5879 16.2659C59.5879 15.77 60.0536 15.4946 60.8481 15.4946C61.6975 15.4946 62.492 15.8252 62.903 16.0731L63.5605 14.8886ZM101.78 14.1999C100.958 14.1999 100.41 14.5856 100.054 15.1641V14.3652H98.6289V20.9489H100.054V17.2576C100.054 16.1557 100.519 15.5496 101.451 15.5496C101.752 15.5496 102.054 15.6048 102.355 15.715L102.793 14.3652C102.492 14.2551 102.081 14.1999 101.78 14.1999ZM83.3962 17.6708C83.3962 19.6817 84.7935 21.1417 86.903 21.1417C87.8893 21.1417 88.5468 20.9213 89.2592 20.3428L88.5743 19.1859C88.0262 19.5716 87.4783 19.7919 86.8482 19.7919C85.6975 19.7919 84.8756 18.9379 84.8756 17.6708C84.8756 16.4036 85.7248 15.5772 86.8482 15.5496C87.4783 15.5496 88.0262 15.77 88.5743 16.1557L89.2592 14.9987C88.5468 14.4203 87.8893 14.1999 86.903 14.1999C84.7935 14.1999 83.3962 15.6598 83.3962 17.6708ZM96.7661 17.6708V14.3652H95.3413V15.1641C94.8756 14.558 94.1907 14.1999 93.2591 14.1999C91.4235 14.1999 89.9715 15.6598 89.9715 17.6708C89.9715 19.6817 91.4235 21.1417 93.2591 21.1417C94.1907 21.1417 94.8756 20.756 95.3413 20.1775V20.9765H96.7661V17.6708ZM91.451 17.6708C91.451 16.5138 92.218 15.5496 93.4509 15.5496C94.629 15.5496 95.4235 16.4588 95.4235 17.6708C95.4235 18.8829 94.629 19.7919 93.4509 19.7919C92.218 19.7643 91.451 18.8277 91.451 17.6708ZM74.2454 14.1999C72.3277 14.1999 70.9851 15.6048 70.9851 17.6708C70.9851 19.7643 72.3824 21.1417 74.355 21.1417C75.3414 21.1417 76.2455 20.8937 77.04 20.2051L76.3276 19.1307C75.7797 19.5716 75.0674 19.8194 74.4099 19.8194C73.4784 19.8194 72.6564 19.3786 72.4373 18.1942H77.314C77.3413 18.0013 77.3413 17.8361 77.3413 17.6432C77.3413 15.6048 76.081 14.1999 74.2454 14.1999ZM74.218 15.467C75.1495 15.467 75.7249 16.0455 75.8893 17.0647H72.492C72.6016 16.1281 73.1769 15.467 74.218 15.467ZM109.999 17.6708V11.7207H108.574V15.1641C108.108 14.558 107.424 14.1999 106.492 14.1999C104.656 14.1999 103.204 15.6598 103.204 17.6708C103.204 19.6817 104.656 21.1417 106.492 21.1417C107.424 21.1417 108.108 20.756 108.574 20.1775V20.9765H109.999V17.6708ZM104.684 17.6708C104.684 16.5138 105.451 15.5496 106.684 15.5496C107.862 15.5496 108.656 16.4588 108.656 17.6708C108.656 18.8829 107.862 19.7919 106.684 19.7919C105.451 19.7643 104.684 18.8277 104.684 17.6708ZM56.492 17.6708V14.3652H55.0674V15.1641C54.6017 14.558 53.9167 14.1999 52.9852 14.1999C51.1496 14.1999 49.6975 15.6598 49.6975 17.6708C49.6975 19.6817 51.1496 21.1417 52.9852 21.1417C53.9167 21.1417 54.6017 20.756 55.0674 20.1775V20.9765H56.492V17.6708ZM51.2043 17.6708C51.2043 16.5138 51.9715 15.5496 53.2044 15.5496C54.3825 15.5496 55.177 16.4588 55.177 17.6708C55.177 18.8829 54.3825 19.7919 53.2044 19.7919C51.9441 19.7643 51.2043 18.8277 51.2043 17.6708Z" fill="white"/>
<path d="M15.7529 25.1537C18.0058 23.3627 19.4516 20.5903 19.4516 17.4784C19.4516 14.3663 18.0058 11.5939 15.7529 9.80293C17.41 8.4856 19.5038 7.69922 21.7802 7.69922C27.1519 7.69922 31.5063 12.0775 31.5063 17.4784C31.5063 22.8791 27.1519 27.2574 21.7802 27.2574C19.5038 27.2574 17.41 26.471 15.7529 25.1537Z" fill="white"/>
<path opacity="0.28" d="M15.7534 9.80293C13.5005 11.5939 12.0548 14.3663 12.0548 17.4784C12.0548 20.5903 13.5005 23.3627 15.7534 25.1537C14.0963 26.471 12.0025 27.2574 9.72603 27.2574C4.3545 27.2574 0 22.8791 0 17.4784C0 12.0775 4.3545 7.69922 9.72603 7.69922C12.0025 7.69922 14.0963 8.4856 15.7534 9.80293Z" fill="white"/>
<path opacity="0.52" d="M15.753 25.1545C18.006 23.3635 19.4517 20.591 19.4517 17.4791C19.4517 14.3672 18.006 11.5947 15.753 9.80371C13.5001 11.5947 12.0544 14.3672 12.0544 17.4791C12.0544 20.591 13.5001 23.3635 15.753 25.1545Z" fill="white"/>
</svg>
