<svg width="73" height="35" viewBox="0 0 73 35" fill="none" xmlns="http://www.w3.org/2000/svg">
<path d="M71.5688 27.6384C69.8175 27.6384 68.0661 27.6384 66.2889 27.6384C66.0957 26.7209 65.8884 25.8232 65.7248 24.9181C65.657 24.5423 65.5353 24.3966 65.111 24.4021C62.9939 24.4289 60.8762 24.4224 58.7587 24.4057C58.4383 24.4032 58.3109 24.5079 58.2132 24.7964C57.9217 25.6591 57.6028 26.513 57.2764 27.3633C57.232 27.479 57.0852 27.6373 56.9847 27.6382C55.0761 27.6547 53.1677 27.6503 51.2041 27.6503C51.5618 26.7984 51.9008 25.9853 52.2446 25.1743C54.7055 19.3717 57.1672 13.5696 59.6287 7.76744C60.1619 6.51075 60.9611 5.98451 62.3359 5.98444C63.8682 5.98433 65.4002 5.9844 66.9715 5.9844C67.1248 6.69183 67.279 7.38888 67.4266 8.08735C68.6375 13.8215 69.8456 19.5562 71.0594 25.2898C71.2148 26.0244 71.3983 26.7529 71.5688 27.4843C71.5688 27.5357 71.5688 27.5871 71.5688 27.6384ZM64.6584 19.9435C64.0956 17.2772 63.5404 14.6466 62.9853 12.0162C62.9627 12.0118 62.9399 12.0074 62.9173 12.003C61.95 14.6401 60.9827 17.2773 60.0046 19.9435C61.5843 19.9435 63.0969 19.9435 64.6584 19.9435Z" fill="white"/>
<path d="M48.5678 5.60011C49.2646 5.72797 49.9667 5.83311 50.6566 5.9904C51.2861 6.13393 51.9026 6.33398 52.5718 6.52233C52.2346 8.08102 51.9052 9.60236 51.583 11.0909C50.7004 10.835 49.8568 10.5404 48.9893 10.3512C47.8032 10.0924 46.5876 9.99382 45.4009 10.3206C44.9184 10.4535 44.4301 10.7086 44.0504 11.0302C43.3988 11.5819 43.3901 12.376 44.0123 12.9552C44.4413 13.3546 44.9499 13.6825 45.4581 13.9844C46.6134 14.6711 47.8264 15.2682 48.9491 16.0015C50.2713 16.8653 51.2356 18.0528 51.4381 19.6583C51.7963 22.4982 50.7335 24.7352 48.32 26.3177C46.8022 27.3127 45.0847 27.7573 43.2951 27.9218C40.7963 28.1516 38.3467 27.8749 35.9588 27.0999C35.7988 27.0478 35.6432 26.983 35.4871 26.9199C35.4405 26.901 35.4 26.8676 35.3286 26.8237C35.6658 25.2625 36.0038 23.6992 36.351 22.0921C36.758 22.2677 37.1402 22.4438 37.5306 22.5992C39.396 23.3422 41.3225 23.6818 43.319 23.3122C43.8384 23.216 44.3682 22.9894 44.8085 22.6976C45.7637 22.0647 45.8555 20.8752 44.9855 20.1315C44.4137 19.6429 43.7263 19.282 43.0749 18.8897C42.0574 18.2771 40.9764 17.7549 40.0134 17.0693C38.7789 16.1905 37.8849 15.0185 37.7154 13.4611C37.4616 11.1289 38.3374 9.23531 40.1486 7.76395C41.7246 6.48376 43.5956 5.9156 45.5891 5.677C45.6999 5.66376 45.8077 5.62629 45.9168 5.6001C46.8005 5.60011 47.6842 5.60011 48.5678 5.60011Z" fill="white"/>
<path d="M28.0347 6.00356C27.738 6.70895 27.4572 7.38154 27.1725 8.05253C24.4552 14.4593 21.7344 20.8647 19.0281 27.2761C18.8992 27.5816 18.7413 27.6618 18.4279 27.6593C16.7129 27.6452 14.9974 27.6396 13.2826 27.6629C12.919 27.6678 12.8005 27.542 12.7168 27.2196C11.2628 21.6196 9.7845 16.0256 8.34697 10.4214C8.08324 9.39329 7.55529 8.69111 6.56513 8.26016C4.97786 7.56937 3.33027 7.08412 1.64964 6.68968C1.57526 6.67225 1.50128 6.65314 1.4314 6.6359C1.43978 5.98596 1.43978 5.98592 2.06524 5.9859C5.06681 5.9859 8.06837 5.98526 11.07 5.98621C12.4936 5.98666 13.5213 6.80404 13.7905 8.19671C14.5524 12.1393 15.2982 16.0849 16.0509 20.0293C16.0838 20.2018 16.1213 20.3734 16.1711 20.6163C16.249 20.4717 16.3034 20.3905 16.3387 20.3019C18.2029 15.6417 20.0679 10.9817 21.9225 6.3178C22.0238 6.06321 22.1487 5.97686 22.4268 5.97904C24.1679 5.99268 25.9092 5.98564 27.6503 5.98658C27.7628 5.98665 27.8753 5.99625 28.0347 6.00356Z" fill="white"/>
<path d="M25.7617 27.6533C27.3298 20.4107 28.8868 13.2191 30.4477 6.00977C32.3465 6.00977 34.2226 6.00977 36.1349 6.00977C35.8983 7.10779 35.6667 8.18482 35.4338 9.26153C34.1454 15.2163 32.852 21.1702 31.5778 27.1279C31.4894 27.5417 31.3408 27.6732 30.9061 27.6649C29.3475 27.6352 27.788 27.6533 26.2289 27.6533C26.0891 27.6533 25.9491 27.6533 25.7617 27.6533Z" fill="white"/>
</svg>
