<svg width="35" height="35" viewBox="0 0 35 35" fill="none" xmlns="http://www.w3.org/2000/svg">
<path d="M26.8153 9.23574C25.7313 8.98257 24.059 7.23534 24.059 7.24604C22.6291 5.24563 21.185 3.41281 19.83 1.86883C19.8228 1.86883 18.5178 1.80821 17.1414 1.79395C15.765 1.81177 14.4599 1.86883 14.4527 1.86883C13.0977 3.41281 11.6536 5.24563 10.2237 7.24604C10.2237 7.23534 8.55138 8.98257 7.46738 9.23574C4.67894 9.8348 -0.0671201 14.7805 0.00419557 14.7805C-0.0385939 15.3225 0.310852 16.1783 0.560457 17.487C0.539063 17.4584 2.18645 20.065 3.66981 22.2544C4.30096 23.3313 4.75024 24.3297 4.6718 25.3852C4.55056 26.9292 4.47211 30.4415 4.47211 30.4415C4.47211 30.4415 5.48124 32.2493 5.48481 32.2351C7.06088 33.0909 8.7047 33.8682 10.3271 34.5528C10.32 34.5421 13.1869 33.3583 15.576 32.5346C16.0502 32.367 18.236 32.367 18.7103 32.5346C21.0994 33.3583 23.9698 34.5421 23.9591 34.5528C25.5816 33.8682 27.2254 33.0909 28.8015 32.2351C28.8051 32.2493 29.8142 30.4415 29.8142 30.4415C29.8142 30.4415 29.7357 26.9292 29.6145 25.3852C29.5325 24.3261 29.9853 23.3277 30.6165 22.2544C32.0998 20.0686 33.7472 17.4584 33.7258 17.487C33.9754 16.1783 34.3249 15.3225 34.2821 14.7805C34.3498 14.777 29.6038 9.8348 26.8153 9.23574Z" fill="#2D4F67"/>
<path d="M34.2749 14.7802C34.2357 13.2683 34.0859 11.1502 33.822 9.49925C33.8969 9.49925 29.6002 8.04085 26.8117 7.4418C25.7277 7.18863 24.0554 5.44139 24.0554 5.45209C22.6255 3.45168 21.1813 1.61887 19.8263 0.0748839C19.8192 0.0748839 18.5141 0.0142631 17.1377 0C15.7613 0.0178289 14.4563 0.0748839 14.4491 0.0748839C13.0941 1.61887 11.65 3.45168 10.2201 5.45209C9.37858 6.233 8.54776 7.18863 7.46376 7.4418C4.67532 8.04085 0.378553 9.49925 0.453435 9.49925C0.189567 11.1466 0.0397966 13.2683 0.000572958 14.7802C-0.0422165 14.9442 2.32189 18.1712 3.66619 20.4605C4.34369 21.3127 4.74662 22.5358 4.66817 23.5912C4.45779 26.2656 4.45067 30.4768 4.45781 30.4447C6.03388 31.3005 7.67772 32.0778 9.30015 32.7624C9.29302 32.7517 13.1868 31.5679 15.5759 30.7442C16.0502 30.5766 18.236 30.5766 18.7102 30.7442C21.0993 31.5679 24.9932 32.7517 24.986 32.7624C26.6085 32.0778 28.2523 31.3005 29.8284 30.4447C29.8355 30.4768 29.8284 26.2656 29.618 23.5912C29.536 22.5322 29.9425 21.3127 30.62 20.4605C31.9536 18.1712 34.3213 14.9406 34.2749 14.7802Z" fill="url(#paint0_linear_27_3346)"/>
<path opacity="0.3" d="M21.9265 21.1632C25.503 22.4183 30.6342 19.0736 31.8751 15.8894C33.1195 12.7015 26.045 13.4004 24.0232 14.6449C22.005 15.8894 21.9265 21.1632 21.9265 21.1632Z" fill="#618DAA"/>
<path d="M31.8752 15.8894C32.6383 13.9318 30.2634 13.4397 27.8458 13.643C30.0851 13.8248 31.7682 15.0194 31.1014 17.273C31.433 16.8165 31.6969 16.353 31.8752 15.8894Z" fill="#2D4F67"/>
<path d="M15.066 30.9085L12.0208 27.8918L11.4574 25.353L5.96606 23.2812L11.7177 24.679L13.9463 28.6905L15.8112 30.7444L15.066 30.9085Z" fill="#2D4F67"/>
<path d="M18.967 5.70144C19.7871 6.72482 20.6928 8.15114 21.5807 9.77713C21.9373 10.4332 22.6183 10.9325 23.3457 11.0608C25.1465 11.3853 26.776 11.7597 28.0348 12.1626C29.2614 12.6048 29.4932 14.6266 28.8371 15.707C28.0989 16.8231 27.1077 18.1139 25.8989 19.4511C25.4103 19.9895 25.15 20.774 25.2356 21.48C25.4424 23.2308 25.5779 24.8319 25.6599 26.2475C25.7562 27.7166 23.7879 28.5189 22.49 27.984C21.1706 27.4706 19.7443 26.95 18.1718 26.2903C17.5406 26.0229 16.7348 26.0229 16.1001 26.2903C14.5276 26.95 13.1012 27.4706 11.7819 27.984C10.484 28.5225 8.51564 27.7166 8.61191 26.2475C8.69393 24.8319 8.82586 23.2308 9.03624 21.48C9.12182 20.774 8.86152 19.9895 8.37301 19.4511C7.16421 18.1104 6.17292 16.8231 5.43481 15.707C4.77514 14.6266 5.01048 12.6048 6.23711 12.1626C7.49583 11.7597 9.12897 11.3889 10.9261 11.0608C11.6535 10.9289 12.3346 10.4332 12.6912 9.77713C13.5791 8.1547 14.4848 6.72482 15.3049 5.70144C16.1393 4.7779 18.1361 4.7779 18.967 5.70144Z" fill="#00252F"/>
<path d="M10.4234 7.80584C10.4234 7.80584 14.4135 0.756285 14.6738 0.809772C14.9341 0.863259 20.6857 2.83157 20.6857 2.83157L24.6259 7.85933L31.8288 10.3482L33.8292 9.50316C33.9041 9.50316 29.6073 8.04475 26.8188 7.4457C25.7348 7.19253 24.0625 5.44529 24.0625 5.45599C22.6326 3.45558 21.1885 1.62277 19.8335 0.0787847C19.8264 0.0787847 18.5213 0.0181694 17.1449 0.00390625C15.7685 0.0217352 14.4634 0.0787847 14.4563 0.0787847C13.1013 1.62277 11.6571 3.45558 10.2273 5.45599C9.38573 6.2369 8.55491 7.19253 7.47091 7.4457C4.68246 8.04475 0.385679 9.50316 0.46056 9.50316L4.05845 9.70641L10.4234 7.80584Z" fill="#87AFCC"/>
<path d="M5.32434 30.9047L9.85289 32.0315L13.9464 30.3199L12.0209 27.8916L15.0661 30.9083L9.29663 32.7625L5.32434 30.9047Z" fill="#77A2C0"/>
<path d="M27.2503 31.5323L23.4812 31.436L18.5069 29.5711L16.1571 30.3306L14.5347 29.3643L15.7078 30.7121C16.3639 30.5802 18.268 30.5909 18.7102 30.7442C20.8069 31.4681 24.066 32.4665 24.822 32.709L25.0145 32.7482C25.3319 32.6127 25.6492 32.4736 25.9701 32.331L29.1473 30.7977C29.1722 30.7834 29.2007 30.7692 29.2257 30.7549L27.2503 31.5323Z" fill="#77A2C0"/>
<defs>
<linearGradient id="paint0_linear_27_3346" x1="17.1382" y1="1.67018" x2="17.1382" y2="28.8276" gradientUnits="userSpaceOnUse">
<stop stop-color="#567B98"/>
<stop offset="1" stop-color="#618DAA"/>
</linearGradient>
</defs>
</svg>
