<svg width="61" height="59" viewBox="0 0 61 59" fill="none" xmlns="http://www.w3.org/2000/svg">
<path d="M58.0686 28.5654C58.0686 13.3419 45.7267 1 30.5031 1C15.2796 1 2.93765 13.3419 2.93765 28.5654H58.0686Z" stroke="#FFC500" stroke-width="2" stroke-miterlimit="10"/>
<path d="M47.8552 28.5654C47.8552 18.9806 40.0816 11.207 30.4969 11.207C20.9122 11.207 13.1386 18.9806 13.1386 28.5654H47.8552Z" stroke="#FFC500" stroke-width="2" stroke-miterlimit="10"/>
<path d="M39.1792 28.5657C39.1792 23.7733 35.2955 19.8896 30.5031 19.8896C25.7107 19.8896 21.8271 23.7733 21.8271 28.5657H39.1792Z" stroke="#FFC500" stroke-width="2" stroke-miterlimit="10"/>
<path d="M30.5031 11.2071V1" stroke="#FFC500" stroke-width="2" stroke-miterlimit="10"/>
<path d="M39.6957 13.3728L45.042 4.67188" stroke="#FFC500" stroke-width="2" stroke-miterlimit="10"/>
<path d="M46.3988 20.0327L55.5043 15.4146" stroke="#FFC500" stroke-width="2" stroke-miterlimit="10"/>
<path d="M22.8167 13.3728L17.4704 4.67188" stroke="#FFC500" stroke-width="2" stroke-miterlimit="10"/>
<path d="M16.1136 20.0327L7.00806 15.4146" stroke="#FFC500" stroke-width="2" stroke-miterlimit="10"/>
<path d="M30.5031 57.7242C20.9184 57.7242 13.1448 49.9506 13.1448 40.3659V28.5654H47.8552V40.3659C47.8552 49.9506 40.0879 57.7242 30.5031 57.7242Z" stroke="#FFC500" stroke-width="2" stroke-miterlimit="10"/>
<path d="M37.9966 50.0314H23.0034C21.9578 50.0314 21.1051 49.1787 21.1051 48.1331C21.1051 47.0875 21.9578 46.2349 23.0034 46.2349H37.9904C39.036 46.2349 39.8887 47.0875 39.8887 48.1331C39.8949 49.1787 39.0422 50.0314 37.9966 50.0314Z" stroke="#FFC500" stroke-width="2" stroke-miterlimit="10"/>
<path d="M33.6462 38.6667H27.3538L28.636 24.9805H32.364L33.6462 38.6667Z" stroke="#FFC500" stroke-width="2" stroke-miterlimit="10"/>
<path d="M23.1403 35.4302C23.1403 37.0858 21.7959 38.4239 20.1466 38.4239C18.4911 38.4239 17.1529 37.0795 17.1529 35.4302C17.1529 33.7747 18.4973 32.4365 20.1466 32.4365C21.8022 32.4303 23.1403 33.7747 23.1403 35.4302Z" stroke="#FFC500" stroke-width="2" stroke-miterlimit="10"/>
<path d="M44.2516 35.4302C44.2516 37.0858 42.9073 38.4239 41.2579 38.4239C39.6024 38.4239 38.2643 37.0795 38.2643 35.4302C38.2643 33.7747 39.6086 32.4365 41.2579 32.4365C42.9135 32.4303 44.2516 33.7747 44.2516 35.4302Z" stroke="#FFC500" stroke-width="2" stroke-miterlimit="10"/>
<path d="M2.93143 28.5654V40.0173" stroke="#FFC500" stroke-width="2" stroke-miterlimit="10"/>
<path d="M0 40.0171H5.8691" stroke="#FFC500" stroke-width="2" stroke-miterlimit="10"/>
<path d="M58.0686 28.5654V40.0173" stroke="#FFC500" stroke-width="2" stroke-miterlimit="10"/>
<path d="M55.1309 40.0171H61" stroke="#FFC500" stroke-width="2" stroke-miterlimit="10"/>
<path d="M12.8398 41.2311C11.0785 41.2311 9.6532 39.8059 9.6532 38.0445C9.6532 36.2832 11.0785 34.8579 12.8398 34.8579" stroke="#FFC500" stroke-width="2" stroke-miterlimit="10"/>
<path d="M48.0979 41.2311C49.8593 41.2311 51.2846 39.8059 51.2846 38.0445C51.2846 36.2832 49.8593 34.8579 48.0979 34.8579" stroke="#FFC500" stroke-width="2" stroke-miterlimit="10"/>
<path d="M11.2465 40.8018V51.4134" stroke="#FFC500" stroke-width="2" stroke-miterlimit="10"/>
<path d="M49.6913 40.8018V51.4134" stroke="#FFC500" stroke-width="2" stroke-miterlimit="10"/>
</svg>
